<?xml version="1.0" encoding="UTF-8"?>
<svg width="116px" height="36px" viewBox="0 0 116 36" version="1.1" xmlns="http://www.w3.org/2000/svg" xmlns:xlink="http://www.w3.org/1999/xlink">
    <!-- Generator: Sketch 46.2 (44496) - http://www.bohemiancoding.com/sketch -->
    <title>dollycast_logo</title>
    <desc>Created with Sketch.</desc>
    <defs>
        <linearGradient x1="49.6364407%" y1="-1651.97881%" x2="49.6364407%" y2="5448.5839%" id="linearGradient-1">
            <stop stop-color="#FF0F66" offset="0%"></stop>
            <stop stop-color="#FF774D" offset="100%"></stop>
        </linearGradient>
        <linearGradient x1="49.970505%" y1="-18.8914442%" x2="49.970505%" y2="250.605629%" id="linearGradient-2">
            <stop stop-color="#FF0F66" offset="0%"></stop>
            <stop stop-color="#FF774D" offset="100%"></stop>
        </linearGradient>
        <linearGradient x1="49.9809091%" y1="-738.166801%" x2="49.9809091%" y2="774.45439%" id="linearGradient-3">
            <stop stop-color="#FF0F66" offset="0%"></stop>
            <stop stop-color="#FF774D" offset="100%"></stop>
        </linearGradient>
        <linearGradient x1="50.0434842%" y1="-993.460315%" x2="50.0434842%" y2="976.326281%" id="linearGradient-4">
            <stop stop-color="#FF0F66" offset="0%"></stop>
            <stop stop-color="#FF774D" offset="100%"></stop>
        </linearGradient>
        <linearGradient x1="50.6822742%" y1="-618.861971%" x2="50.6822742%" y2="676.736646%" id="linearGradient-5">
            <stop stop-color="#FF0F66" offset="0%"></stop>
            <stop stop-color="#FF774D" offset="100%"></stop>
        </linearGradient>
        <linearGradient x1="50.167893%" y1="-618.861971%" x2="50.167893%" y2="676.736646%" id="linearGradient-6">
            <stop stop-color="#FF0F66" offset="0%"></stop>
            <stop stop-color="#FF774D" offset="100%"></stop>
        </linearGradient>
        <linearGradient x1="49.9422388%" y1="-689.729781%" x2="49.9422388%" y2="675.486612%" id="linearGradient-7">
            <stop stop-color="#FF0F66" offset="0%"></stop>
            <stop stop-color="#FF774D" offset="100%"></stop>
        </linearGradient>
        <linearGradient x1="50.3053055%" y1="-991.396539%" x2="50.3053055%" y2="974.558137%" id="linearGradient-8">
            <stop stop-color="#FF0F66" offset="0%"></stop>
            <stop stop-color="#FF774D" offset="100%"></stop>
        </linearGradient>
        <linearGradient x1="50.0294393%" y1="-994.7675%" x2="50.0294393%" y2="977.610921%" id="linearGradient-9">
            <stop stop-color="#FF0F66" offset="0%"></stop>
            <stop stop-color="#FF774D" offset="100%"></stop>
        </linearGradient>
        <linearGradient x1="49.9322457%" y1="-992.156562%" x2="49.9322457%" y2="975.045013%" id="linearGradient-10">
            <stop stop-color="#FF0F66" offset="0%"></stop>
            <stop stop-color="#FF774D" offset="100%"></stop>
        </linearGradient>
        <linearGradient x1="50.1947896%" y1="-795.288805%" x2="50.1947896%" y2="818.282347%" id="linearGradient-11">
            <stop stop-color="#FF0F66" offset="0%"></stop>
            <stop stop-color="#FF774D" offset="100%"></stop>
        </linearGradient>
    </defs>
    <g id="Page-1" stroke="none" stroke-width="1" fill="none" fill-rule="evenodd">
        <g id="Desktop" transform="translate(-333.000000, -12.000000)" fill-rule="nonzero">
            <g id="Menu" transform="translate(0.000000, -6.000000)">
                <g id="dollycast_logo" transform="translate(333.000000, 18.000000)">
                    <circle id="Oval" fill="#FFFFFF" cx="18.5" cy="18.5" r="14.5"></circle>
                    <g id="Group">
                        <path d="M17.5961538,15.7659164 C17.2269231,15.7659164 16.9153846,16.066881 16.9153846,16.4488746 C16.9153846,16.8308682 17.2153846,17.1318328 17.5961538,17.1318328 C17.9653846,17.1318328 18.2769231,16.8308682 18.2769231,16.4488746 C18.2769231,16.066881 17.9653846,15.7659164 17.5961538,15.7659164 Z" id="Shape" fill="url(#linearGradient-1)"></path>
                        <path d="M34.1769231,20.5350482 C35.2269231,20.1530547 35.9769231,19.1575563 35.9769231,17.9768489 C35.9769231,16.7845659 35.2153846,15.777492 34.1538462,15.407074 C35.0423077,14.7241158 35.4576923,13.5318328 35.0884615,12.3974277 C34.7192308,11.2745981 33.6923077,10.5453376 32.5846154,10.5221865 C33.2076923,9.59614148 33.2307692,8.34598071 32.5384615,7.385209 C31.8461538,6.4244373 30.6461538,6.05401929 29.5730769,6.37813505 C29.8846154,5.30160772 29.5153846,4.10932476 28.5576923,3.414791 C27.6,2.72025723 26.3423077,2.74340836 25.4307692,3.38006431 C25.3961538,2.26881029 24.6807692,1.23858521 23.5615385,0.879742765 C22.4423077,0.509324759 21.2538462,0.926045016 20.5730769,1.80578778 C20.1923077,0.752411576 19.2,-1.70530257e-13 18.0230769,-1.70530257e-13 C16.8346154,-1.70530257e-13 15.8307692,0.763987138 15.4615385,1.82893891 C14.7807692,0.937620579 13.5923077,0.520900322 12.4615385,0.891318328 C11.3423077,1.26173633 10.6153846,2.29196141 10.5923077,3.40321543 C9.66923077,2.77813505 8.42307692,2.75498392 7.46538462,3.44951768 C6.50769231,4.14405145 6.13846154,5.34790997 6.46153846,6.4244373 C5.38846154,6.11189711 4.2,6.48231511 3.50769231,7.44308682 C2.81538462,8.40385852 2.83846154,9.66559486 3.47307692,10.5800643 C2.36538462,10.614791 1.33846154,11.3324759 0.980769231,12.4553055 C0.611538462,13.578135 1.02692308,14.770418 1.90384615,15.4533762 C0.853846154,15.8353698 0.103846154,16.8308682 0.103846154,18.0115756 C0.103846154,19.2038585 0.865384615,20.2109325 1.92692308,20.5813505 C1.03846154,21.2643087 0.623076923,22.4565916 0.992307692,23.5909968 C1.36153846,24.7138264 2.38846154,25.4430868 3.49615385,25.4662379 C2.87307692,26.392283 2.85,27.6424437 3.54230769,28.6032154 C4.23461538,29.5639871 5.43461538,29.9344051 6.50769231,29.6102894 C6.19615385,30.6868167 6.56538462,31.8790997 7.52307692,32.5736334 C8.48076923,33.2681672 9.73846154,33.2450161 10.65,32.6083601 C10.6846154,33.7196141 11.4,34.7498392 12.5192308,35.1086817 C13.6384615,35.4790997 14.8269231,35.0623794 15.5076923,34.1826367 C15.8884615,35.2360129 16.8807692,35.9884244 18.0576923,35.9884244 C19.2461538,35.9884244 20.25,35.2244373 20.6192308,34.1594855 C21.3,35.0508039 22.4884615,35.4675241 23.6192308,35.0971061 C24.7384615,34.7266881 25.4653846,33.696463 25.4884615,32.585209 C26.4115385,33.2102894 27.6576923,33.2334405 28.6153846,32.5389068 C29.5730769,31.844373 29.9423077,30.6405145 29.6192308,29.5639871 C30.6923077,29.8765273 31.8807692,29.5061093 32.5730769,28.5453376 C33.2653846,27.5845659 33.2423077,26.3228296 32.6076923,25.4083601 C33.7153846,25.3736334 34.7423077,24.6559486 35.1,23.533119 C35.4692308,22.4102894 35.0653846,21.2180064 34.1769231,20.5350482 Z M12.8769231,12.918328 L8.81538462,15.6038585 C9.69230769,15.6501608 11.1692308,15.5459807 12.3115385,14.6546624 C12.4384615,14.5504823 12.6230769,14.5736334 12.7153846,14.7009646 C12.8192308,14.8282958 12.7961538,15.0135048 12.6692308,15.1061093 C11.5269231,15.9974277 10.1423077,16.1942122 9.17307692,16.1942122 C8.48076923,16.1942122 7.98461538,16.1016077 7.93846154,16.0900322 C7.82307692,16.066881 7.73076923,15.9742765 7.71923077,15.8585209 C7.69615385,15.7427653 7.74230769,15.6270096 7.84615385,15.5575563 L12.5769231,12.4321543 C12.7153846,12.3395498 12.8884615,12.3858521 12.9807692,12.5131833 C13.05,12.65209 13.0153846,12.8257235 12.8769231,12.918328 Z M27.5769231,18.4977492 C27.5653846,19.0533762 27.2769231,19.5395498 26.8038462,19.8289389 L16.2576923,26.1723473 C16.0038462,26.3228296 15.7269231,26.4038585 15.4384615,26.4038585 C15.1730769,26.4038585 14.9076923,26.3344051 14.6653846,26.1954984 C14.1576923,25.9176849 13.8576923,25.4083601 13.8461538,24.829582 L13.65,12.4900322 C13.6384615,11.9344051 13.9038462,11.4250804 14.3653846,11.1241158 C14.4461538,11.0430868 14.55,10.9967846 14.6653846,10.9736334 C15.1038462,10.8 15.5884615,10.8347267 16.0153846,11.0662379 L26.7576923,17.0623794 C26.8961538,17.1434084 27.0230769,17.2475884 27.1384615,17.3517685 C26.6192308,17.7221865 25.8576923,18.1736334 25.1884615,18.1736334 C25.0269231,18.1736334 24.9,18.3009646 24.9,18.4630225 C24.9,18.6250804 25.0269231,18.7524116 25.1884615,18.7524116 C25.9961538,18.7524116 26.8730769,18.2546624 27.4615385,17.8379421 C27.5076923,17.9421222 27.5307692,18.0463023 27.5538462,18.1504823 C27.5884615,18.2662379 27.6,18.3819936 27.5769231,18.4977492 Z" id="Shape" fill="url(#linearGradient-2)"></path>
                    </g>
                    <g id="Group" transform="translate(46.000000, 9.000000)">
                        <path d="M0.0791599354,2.44934211 C0.0791599354,2.28157895 0.135702746,2.13618421 0.248788368,2.01315789 C0.36187399,1.89013158 0.520193861,1.82302632 0.723747981,1.82302632 L3.04200323,1.82302632 C4.97576737,1.82302632 6.42326333,2.29276316 7.39579968,3.24342105 C8.32310178,4.14934211 8.78675283,5.44671053 8.78675283,7.12434211 C8.78675283,8.925 8.26655897,10.3342105 7.22617124,11.3631579 C6.18578352,12.3921053 4.74959612,12.9065789 2.90630048,12.9065789 L0.723747981,12.9065789 C0.520193861,12.9065789 0.36187399,12.8394737 0.248788368,12.7164474 C0.135702746,12.5934211 0.0791599354,12.4368421 0.0791599354,12.2690789 L0.0791599354,2.44934211 Z M3.25686591,3.41118421 L2.89499192,3.41118421 C2.73667205,3.41118421 2.40872375,3.42236842 1.91114701,3.43355263 L1.91114701,11.3072368 L3.09854604,11.3296053 L3.14378029,11.3296053 C5.03231018,11.3296053 6.18578352,10.5243421 6.62681745,8.91381579 C6.76252019,8.38815789 6.84168013,7.81776316 6.84168013,7.18026316 C6.84168013,6.54276316 6.76252019,5.99473684 6.61550889,5.53618421 C6.45718901,5.07763158 6.23101777,4.68618421 5.93699515,4.37302632 C5.31502423,3.72434211 4.42164782,3.41118421 3.25686591,3.41118421 Z" id="Shape" fill="url(#linearGradient-3)"></path>
                        <path d="M10.5056543,8.79078947 C10.5056543,8.16447368 10.6074313,7.59407895 10.822294,7.06842105 C11.0371567,6.54276316 11.3198708,6.09539474 11.6930533,5.72631579 C12.4733441,4.95460526 13.4458805,4.56315789 14.6219709,4.56315789 C15.9450727,4.56315789 16.9628433,4.95460526 17.6978998,5.72631579 C18.3990307,6.47565789 18.7495961,7.50460526 18.7495961,8.80197368 C18.7495961,10.0657895 18.3537964,11.0947368 17.5621971,11.9 C16.7819063,12.6828947 15.80937,13.0743421 14.6332795,13.0743421 C13.3893376,13.0743421 12.3941842,12.6717105 11.6365105,11.8664474 C10.8788368,11.0835526 10.5056543,10.0657895 10.5056543,8.79078947 Z M12.8578352,6.95657895 C12.6768982,7.225 12.5411955,7.52697368 12.4620355,7.8625 C12.3828756,8.19802632 12.3376414,8.54473684 12.3376414,8.89144737 C12.3376414,9.23815789 12.3828756,9.57368421 12.4846527,9.89802632 C12.5751212,10.2223684 12.7221325,10.5019737 12.914378,10.7592105 C13.3327948,11.3072368 13.9208401,11.5868421 14.6672052,11.5868421 C15.4361874,11.5868421 16.0129241,11.3184211 16.4087237,10.7815789 C16.7592892,10.3118421 16.9402262,9.66315789 16.9402262,8.84671053 C16.9402262,7.62763158 16.5331179,6.78881579 15.73021,6.31907895 C15.4361874,6.15131579 15.0743134,6.06184211 14.6558966,6.06184211 C14.2374798,6.06184211 13.8756058,6.14013158 13.5928918,6.30789474 C13.276252,6.47565789 13.0387722,6.68815789 12.8578352,6.95657895 Z" id="Shape" fill="url(#linearGradient-4)"></path>
                        <path d="M22.8319871,10.9157895 C22.8319871,11.2625 22.9563813,11.4302632 23.1938611,11.4302632 C23.273021,11.4302632 23.3747981,11.4078947 23.4878837,11.3631579 C23.7140549,11.2848684 23.8497577,11.2401316 23.8949919,11.2401316 C24.0080775,11.2401316 24.098546,11.3072368 24.1550889,11.4526316 L24.3812601,11.9671053 C24.4151858,12.0342105 24.4264943,12.1125 24.4264943,12.1684211 C24.4264943,12.2802632 24.3360258,12.4144737 24.1437803,12.5710526 C23.7705977,12.8730263 23.2843296,13.0296053 22.6849758,13.0296053 C21.5880452,13.0296053 21.0452342,12.3138158 21.0452342,10.8710526 L21.0452342,0.559210526 C21.0452342,0.425 21.0791599,0.313157895 21.1583199,0.223684211 C21.2374798,0.134210526 21.3279483,0.0894736842 21.4410339,0.0894736842 L22.4248788,0.0894736842 C22.5379645,0.0894736842 22.628433,0.134210526 22.7075929,0.223684211 C22.7754443,0.313157895 22.8206785,0.425 22.8206785,0.559210526 L22.8206785,10.9157895 L22.8319871,10.9157895 Z" id="Shape" fill="url(#linearGradient-5)"></path>
                        <path d="M27.9208401,10.9157895 C27.9208401,11.2625 28.0452342,11.4302632 28.2827141,11.4302632 C28.361874,11.4302632 28.4636511,11.4078947 28.5880452,11.3631579 C28.8142165,11.2848684 28.9499192,11.2401316 28.9951535,11.2401316 C29.1082391,11.2401316 29.1987076,11.3072368 29.2552504,11.4526316 L29.4814216,11.9671053 C29.5153473,12.0342105 29.5266559,12.1125 29.5266559,12.1684211 C29.5266559,12.2802632 29.4361874,12.4144737 29.2439418,12.5710526 C28.8707593,12.8730263 28.3844911,13.0296053 27.7851373,13.0296053 C26.6882068,13.0296053 26.1453958,12.3138158 26.1453958,10.8710526 L26.1453958,0.559210526 C26.1453958,0.425 26.1793215,0.313157895 26.2584814,0.223684211 C26.3376414,0.134210526 26.4281099,0.0894736842 26.5411955,0.0894736842 L27.5250404,0.0894736842 C27.638126,0.0894736842 27.7285945,0.134210526 27.8077544,0.223684211 C27.8756058,0.313157895 27.9208401,0.425 27.9208401,0.559210526 L27.9208401,10.9157895 L27.9208401,10.9157895 Z" id="Shape" fill="url(#linearGradient-6)"></path>
                        <path d="M37.5218094,4.74210526 C37.8384491,4.74210526 37.9854604,4.89868421 37.9854604,5.20065789 C37.9854604,5.54736842 37.8045234,6.33026316 37.4313409,7.53815789 L36.9789984,8.91381579 C35.9159935,11.9447368 34.5928918,14.4276316 33.0096931,16.3848684 L32.8626817,16.5638158 C32.6365105,16.8434211 32.4103393,16.9888158 32.1728595,16.9888158 C31.9240711,16.9888158 31.641357,16.8210526 31.3134087,16.4743421 C31.2229402,16.3736842 31.177706,16.2618421 31.177706,16.1388158 C31.177706,15.9375 31.2907916,15.725 31.5056543,15.5013158 C31.720517,15.2776316 31.9240711,15.0539474 32.1163166,14.8302632 C32.2972536,14.6065789 32.4781906,14.3828947 32.6478191,14.1592105 C32.9531502,13.7453947 33.2245557,13.3203947 33.4620355,12.8618421 C32.7043619,10.8375 32.2407108,9.61842105 32.082391,9.21578947 L31.2907916,7.25855263 L30.7253635,5.99473684 C30.5105008,5.51381579 30.4087237,5.22302632 30.4087237,5.11118421 C30.4087237,5.01052632 30.453958,4.92105263 30.5444265,4.84276316 C30.634895,4.76447368 30.7592892,4.73092105 30.9289176,4.73092105 L31.8449111,4.73092105 C32.0597738,4.73092105 32.2294023,4.85394737 32.3424879,5.08881579 C32.4329564,5.26776316 32.546042,5.55855263 32.7043619,5.97236842 C33.0096931,6.85592105 33.2358643,7.51578947 33.371567,7.94078947 L33.9596123,9.85328947 C34.0161551,10.0434211 34.0613893,10.2 34.095315,10.3118421 L34.1631664,10.5690789 C34.174475,10.625 34.1970921,10.7032895 34.2197092,10.7815789 L34.2875606,11.0611842 C34.3101777,11.1618421 34.3441034,11.2065789 34.3667205,11.2065789 C34.4006462,11.2065789 34.4232633,11.1730263 34.4684976,11.1171053 C34.5024233,11.0611842 34.5476575,10.9828947 34.5815832,10.8934211 L34.7059774,10.5914474 C35.2148627,9.30526316 35.6898223,7.50460526 36.1421648,5.17828947 C36.1987076,4.86513158 36.3796446,4.70855263 36.6962843,4.70855263 L37.5218094,4.70855263 L37.5218094,4.74210526 Z" id="Shape" fill="url(#linearGradient-7)"></path>
                        <path d="M45.5169628,7.96315789 C45.1211632,7.96315789 44.917609,7.77302632 44.917609,7.38157895 C44.917609,6.93421053 44.7819063,6.5875 44.4991922,6.35263158 C44.2617124,6.14013158 43.9450727,6.03947368 43.5379645,6.03947368 C43.1308562,6.03947368 42.8029079,6.11776316 42.542811,6.28552632 C42.2827141,6.45328947 42.0678514,6.65460526 41.8982229,6.91184211 C41.5815832,7.41513158 41.4119548,8.01907895 41.4119548,8.72368421 C41.4119548,10.0434211 41.819063,10.9046053 42.6219709,11.3072368 C42.9159935,11.4526316 43.2439418,11.5309211 43.5945073,11.5309211 C43.9450727,11.5309211 44.2390953,11.4973684 44.4765751,11.4190789 C44.7027464,11.3407895 44.9063005,11.2625 45.0872375,11.1618421 C45.2681745,11.0723684 45.4264943,10.9828947 45.5621971,10.9046053 C45.6978998,10.8263158 45.8109855,10.7927632 45.8901454,10.7927632 C46.0710824,10.7927632 46.2067851,10.8710526 46.3085622,11.0276316 L46.4668821,11.2960526 C46.5347334,11.4190789 46.5799677,11.5421053 46.5799677,11.6651316 C46.5799677,11.7881579 46.5347334,11.9111842 46.4329564,12.0342105 C46.3311793,12.1572368 46.2067851,12.2802632 46.0371567,12.3809211 C45.8788368,12.4815789 45.6865913,12.5822368 45.4830372,12.6717105 C45.2681745,12.7611842 45.0533118,12.8282895 44.8271405,12.8953947 C43.7528271,13.175 42.7802908,13.1414474 41.8869144,12.7611842 C40.8917609,12.3473684 40.2132472,11.6092105 39.8287561,10.5355263 C39.6478191,10.0098684 39.546042,9.41710526 39.546042,8.75723684 C39.546042,8.09736842 39.6478191,7.51578947 39.8400646,6.99013158 C40.0323102,6.46447368 40.3150242,6.02828947 40.6655897,5.67039474 C41.3893376,4.93223684 42.3392569,4.55197368 43.5040388,4.55197368 C44.5331179,4.55197368 45.3247173,4.82039474 45.8788368,5.35723684 C46.3424879,5.81578947 46.5686591,6.38618421 46.5686591,7.07960526 C46.5686591,7.66118421 46.2633279,7.95197368 45.6639742,7.95197368 L45.5169628,7.95197368 L45.5169628,7.96315789 Z" id="Shape" fill="url(#linearGradient-8)"></path>
                        <path d="M55.4684976,12.5151316 C55.4684976,12.7723684 55.3441034,12.8953947 55.0840065,12.8953947 L54.371567,12.8953947 C54.1793215,12.8953947 54.0662359,12.8618421 54.0323102,12.7835526 C53.9983845,12.7052632 53.9757674,12.6381579 53.9644588,12.5822368 C53.9644588,12.5263158 53.9531502,12.4480263 53.9305331,12.3585526 C53.8966074,12.1236842 53.8626817,11.8664474 53.8061389,11.5868421 C53.4216478,12.2802632 52.8336026,12.7276316 52.0193861,12.9513158 C51.7366721,13.0296053 51.4200323,13.0631579 51.0694669,13.0631579 C50.7189015,13.0631579 50.3796446,13.0072368 50.0290792,12.8953947 C49.6785137,12.7835526 49.3731826,12.6157895 49.1130856,12.3921053 C48.5137318,11.8888158 48.2084006,11.2289474 48.2084006,10.4236842 C48.2084006,9.52894737 48.5363489,8.84671053 49.2035541,8.37697368 C49.7463651,7.99671053 50.447496,7.80657895 51.3069467,7.80657895 C52.1663974,7.80657895 52.8901454,8.05263158 53.4894992,8.55592105 C53.5008078,8.38815789 53.5121163,8.18684211 53.5121163,7.94078947 C53.5121163,7.69473684 53.4668821,7.44868421 53.365105,7.20263158 C53.2633279,6.95657895 53.1276252,6.75526316 52.9466882,6.5875 C52.5735057,6.26315789 52.0646204,6.10657895 51.3974152,6.10657895 C50.7980614,6.10657895 50.1987076,6.26315789 49.5880452,6.5875 C49.4749596,6.65460526 49.3731826,6.67697368 49.2827141,6.67697368 C49.1470113,6.67697368 49.0226171,6.55394737 48.8982229,6.29671053 C48.7625202,6.03947368 48.7059774,5.84934211 48.7059774,5.7375 C48.7059774,5.525 48.8642973,5.32368421 49.1922456,5.12236842 C49.8029079,4.74210526 50.628433,4.56315789 51.6575121,4.56315789 C52.5961228,4.56315789 53.365105,4.82039474 53.9870759,5.32368421 C54.7108239,5.92763158 55.0726979,6.78881579 55.0726979,7.89605263 C55.0726979,8.38815789 54.993538,9.00328947 54.8352181,9.75263158 C55.2310178,10.9269737 55.4458805,11.8440789 55.4684976,12.5151316 Z M50.5718901,9.45065789 C50.368336,9.59605263 50.2326333,9.74144737 50.1421648,9.88684211 C50.0516963,10.0322368 50.0177706,10.2 50.0177706,10.4013158 C50.0177706,10.5914474 50.0516963,10.7703947 50.1195477,10.9269737 C50.187399,11.0835526 50.2891761,11.2065789 50.4135703,11.3072368 C50.6849758,11.5197368 50.9789984,11.6203947 51.3182553,11.6203947 C51.6575121,11.6203947 51.9289176,11.5868421 52.1437803,11.5085526 C52.358643,11.4302632 52.53958,11.3296053 52.6978998,11.2065789 C53.0371567,10.9493421 53.2067851,10.6697368 53.2067851,10.3789474 C53.1728595,10.0210526 52.9806139,9.73026316 52.5961228,9.52894737 C52.2568659,9.33881579 51.8610662,9.23815789 51.4087237,9.23815789 C51.0468498,9.22697368 50.7754443,9.30526316 50.5718901,9.45065789 Z" id="Shape" fill="url(#linearGradient-9)"></path>
                        <path d="M59.9579968,11.5980263 C60.8966074,11.5980263 61.3602585,11.2848684 61.3602585,10.6697368 C61.3602585,10.3230263 61.1001616,10.0434211 60.5686591,9.79736842 C60.3424879,9.69671053 60.1050081,9.60723684 59.8336026,9.51776316 C59.5735057,9.42828947 59.3134087,9.32763158 59.0646204,9.20460526 C58.815832,9.08157895 58.5896607,8.94736842 58.3861066,8.81315789 C58.1712439,8.66776316 57.9903069,8.51118421 57.8319871,8.32105263 C57.5153473,7.94078947 57.3457189,7.44868421 57.3457189,6.85592105 C57.3457189,6.12894737 57.6510501,5.55855263 58.2617124,5.13355263 C58.8045234,4.75328947 59.4717286,4.56315789 60.2520194,4.56315789 C61.1001616,4.56315789 61.812601,4.73092105 62.3780291,5.05526316 C62.5702746,5.16710526 62.6720517,5.30131579 62.6720517,5.45789474 C62.6720517,5.67039474 62.6155089,5.90526316 62.5024233,6.15131579 C62.3893376,6.40855263 62.2536349,6.53157895 62.095315,6.53157895 C61.9369952,6.53157895 61.8012924,6.49802632 61.6768982,6.44210526 C61.552504,6.375 61.4394184,6.33026316 61.3376414,6.27434211 C61.2358643,6.22960526 61.1340872,6.19605263 61.0210016,6.1625 C60.7722132,6.09539474 60.5573506,6.05065789 60.3424879,6.05065789 C60.1389338,6.05065789 59.9693053,6.06184211 59.8449111,6.09539474 C59.720517,6.12894737 59.6074313,6.17368421 59.5056543,6.22960526 C59.2568659,6.375 59.1324717,6.56513158 59.1324717,6.77763158 C59.1324717,6.99013158 59.177706,7.15789474 59.279483,7.28092105 C59.3812601,7.39276316 59.5169628,7.50460526 59.6978998,7.59407895 C59.8788368,7.69473684 60.082391,7.78421053 60.3311793,7.88486842 L61.1227787,8.20921053 C61.7560582,8.48881579 62.1970921,8.73486842 62.4119548,8.95855263 C62.8529887,9.40592105 63.0678514,9.92039474 63.0678514,10.5019737 C63.0678514,11.2401316 62.819063,11.8328947 62.3101777,12.3138158 C61.7447496,12.8282895 60.9531502,13.0855263 59.9240711,13.0855263 C58.8723748,13.0855263 58.092084,12.8842105 57.5605816,12.4815789 C57.3004847,12.2914474 57.1760905,12.1125 57.1760905,11.9559211 C57.1760905,11.7993421 57.1987076,11.6651316 57.2552504,11.5421053 C57.3117932,11.4190789 57.3796446,11.2736842 57.4701131,11.1059211 C57.5605816,10.9381579 57.6849758,10.8598684 57.8319871,10.8598684 C57.9789984,10.8598684 58.1486268,10.9269737 58.3182553,11.0611842 C58.4878837,11.1953947 58.7253635,11.3184211 59.0306947,11.4302632 C59.3473344,11.5421053 59.641357,11.5980263 59.9579968,11.5980263 Z" id="Shape" fill="url(#linearGradient-10)"></path>
                        <path d="M69.7059774,5.84934211 C69.7059774,6.11776316 69.5476575,6.25197368 69.2423263,6.25197368 L67.184168,6.25197368 L67.184168,10.7927632 C67.184168,11.2848684 67.4329564,11.5309211 67.9192246,11.5309211 C68.2358643,11.5309211 68.6429725,11.3743421 69.1405493,11.0723684 C69.2423263,11.0052632 69.3441034,10.9828947 69.457189,10.9828947 C69.5702746,10.9828947 69.6607431,11.0611842 69.7285945,11.2177632 L69.8982229,11.5980263 C69.9660743,11.7434211 69.9886914,11.8664474 69.9886914,11.9671053 C69.9886914,12.0677632 69.9095315,12.1796053 69.7625202,12.3138158 C69.6042003,12.4480263 69.4119548,12.5710526 69.174475,12.6717105 C68.631664,12.9177632 68.1453958,13.0296053 67.7043619,13.0296053 C67.2633279,13.0296053 66.9127625,12.9848684 66.6639742,12.8953947 C66.4038772,12.8059211 66.1890145,12.6717105 66.0080775,12.4927632 C65.6235864,12.1125 65.4200323,11.5756579 65.4200323,10.8710526 L65.4200323,6.26315789 L64.80937,6.26315789 C64.5040388,6.26315789 64.3457189,6.12894737 64.3457189,5.84934211 L64.3457189,5.43552632 C64.3457189,5.32368421 64.3796446,5.23421053 64.4361874,5.17828947 C64.4927302,5.11118421 64.6058158,5.06644737 64.7754443,5.03289474 L65.5105008,4.82039474 L65.7932149,3.12039474 C65.8497577,2.80723684 65.9741519,2.63947368 66.1890145,2.63947368 L66.7996769,2.63947368 C66.9127625,2.63947368 67.003231,2.68421053 67.082391,2.77368421 C67.1502423,2.86315789 67.1954766,2.975 67.1954766,3.12039474 L67.1954766,4.75328947 L69.2536349,4.75328947 C69.5589661,4.75328947 69.7172859,4.8875 69.7172859,5.15592105 L69.7172859,5.84934211 L69.7059774,5.84934211 Z" id="Shape" fill="url(#linearGradient-11)"></path>
                    </g>
                </g>
            </g>
        </g>
    </g>
</svg>